<?xml version="1.0" standalone="no"?>
<!DOCTYPE svg PUBLIC "-//W3C//DTD SVG 20010904//EN"
 "http://www.w3.org/TR/2001/REC-SVG-20010904/DTD/svg10.dtd">
<svg version="1.0" xmlns="http://www.w3.org/2000/svg"
 width="87.000000pt" height="86.000000pt" viewBox="0 0 87.000000 86.000000"
 preserveAspectRatio="xMidYMid meet">

<g transform="translate(0.000000,86.000000) scale(0.100000,-0.100000)"
fill="#000000" stroke="none">
<path d="M320 846 c-162 -62 -248 -152 -294 -305 -39 -133 -3 -287 92 -393 49
-55 143 -115 192 -123 22 -4 42 -11 46 -16 7 -12 151 -12 159 1 3 6 16 10 28
10 36 0 138 54 190 100 35 31 60 67 92 134 42 85 45 98 45 172 0 171 -99 323
-258 397 -57 26 -81 31 -162 34 -63 2 -107 -2 -130 -11z m215 -185 c116 -53
178 -179 145 -296 -26 -93 -143 -185 -236 -185 -213 0 -335 257 -196 412 73
81 196 111 287 69z"/>
</g>
</svg>
